<svg width="24" height="24" viewBox="0 0 24 24" fill="none" xmlns="http://www.w3.org/2000/svg">
<g clip-path="url(#clip0_2537_9323)">
<path d="M23.5863 19.8623H0.413987C0.185472 19.8623 0.000175476 19.677 0.000175476 19.4485V4.552C0.000175476 4.32348 0.185472 4.13818 0.413987 4.13818H23.5864C23.8149 4.13818 24.0002 4.32348 24.0002 4.552V19.4485C24.0001 19.6771 23.8148 19.8623 23.5863 19.8623Z" fill="#FF4B55"/>
<path d="M3.98461 6.59682L4.37911 7.77967L5.62598 7.78932C5.78742 7.79054 5.85436 7.9966 5.72447 8.09246L4.72144 8.83313L5.09752 10.022C5.14617 10.1759 4.97095 10.3032 4.83961 10.2093L3.82524 9.48422L2.81086 10.2093C2.67952 10.3032 2.5043 10.1758 2.55296 10.0219L2.92904 8.83309L1.92601 8.09246C1.79612 7.99656 1.86305 7.79054 2.02449 7.78932L3.27136 7.77967L3.66586 6.59682C3.71696 6.44364 3.93357 6.44364 3.98461 6.59682Z" fill="#FFE15A"/>
<path d="M8.51233 6.88828L8.79522 7.27406L9.25174 7.13128C9.31084 7.11281 9.35945 7.18022 9.32327 7.23042L9.0438 7.61859L9.32064 8.00864C9.3565 8.05912 9.30742 8.1262 9.24845 8.10731L8.79288 7.96148L8.50746 8.34534C8.47052 8.39503 8.39153 8.36906 8.3913 8.30718L8.38919 7.82883L7.93591 7.67597C7.87727 7.65614 7.8775 7.57308 7.93633 7.55367L8.39055 7.40386L8.39589 6.92555C8.39655 6.86372 8.47572 6.83836 8.51233 6.88828Z" fill="#FFE15A"/>
<path d="M6.79008 5.73846L7.26563 5.79012L7.4685 5.35695C7.4948 5.30089 7.5773 5.3105 7.58995 5.37111L7.68773 5.83929L8.16239 5.89836C8.22384 5.906 8.2402 5.98746 8.18644 6.01826L7.77136 6.25592L7.86188 6.7256C7.87359 6.78645 7.80117 6.82714 7.75528 6.78556L7.40095 6.46423L6.98227 6.69542C6.92808 6.72537 6.86691 6.66903 6.89231 6.61254L7.08839 6.17623L6.73908 5.84942C6.69389 5.80732 6.72853 5.73181 6.79008 5.73846Z" fill="#FFE15A"/>
<path d="M7.54185 10.3741L7.25896 10.7599L6.80245 10.6171C6.74334 10.5987 6.69473 10.6661 6.73092 10.7163L7.01039 11.1044L6.73354 11.4945C6.69768 11.545 6.74676 11.612 6.80573 11.5932L7.26131 11.4473L7.54673 11.8312C7.58366 11.8809 7.66265 11.8549 7.66288 11.793L7.66499 11.3147L8.11827 11.1618C8.17696 11.142 8.17668 11.0589 8.11785 11.0395L7.66363 10.8897L7.65829 10.4114C7.65754 10.3496 7.57846 10.3242 7.54185 10.3741Z" fill="#FFE15A"/>
<path d="M9.26407 9.29364L8.78852 9.3453L8.58565 8.91213C8.55935 8.85606 8.47685 8.86567 8.46419 8.92628L8.36636 9.39447L7.89171 9.45353C7.83026 9.46117 7.8139 9.54264 7.86766 9.57344L8.28274 9.81109L8.19222 10.2808C8.18051 10.3416 8.25293 10.3823 8.29882 10.3407L8.65315 10.0194L9.07183 10.2506C9.12602 10.2805 9.18719 10.2242 9.16179 10.1677L8.96571 9.73141L9.31502 9.40459C9.36035 9.3625 9.32571 9.28698 9.26407 9.29364Z" fill="#FFE15A"/>
</g>
<defs>
<clipPath id="clip0_2537_9323">
<rect width="24" height="24" fill="white"/>
</clipPath>
</defs>
</svg>
