<svg width="24" height="24" viewBox="0 0 24 24" fill="none" xmlns="http://www.w3.org/2000/svg">
<g clip-path="url(#clip0_2537_9317)">
<path d="M23.5864 19.8618H0.414094C0.185579 19.8618 0.000282288 19.6765 0.000282288 19.448V4.55151C0.000282288 4.32299 0.185579 4.1377 0.414094 4.1377H23.5865C23.815 4.1377 24.0003 4.32299 24.0003 4.55151V19.448C24.0002 19.6766 23.8149 19.8618 23.5864 19.8618Z" fill="#F5F5F5"/>
<path d="M12.0002 16.5513C14.514 16.5513 16.5518 14.5135 16.5518 11.9998C16.5518 9.48604 14.514 7.44824 12.0002 7.44824C9.48646 7.44824 7.44866 9.48604 7.44866 11.9998C7.44866 14.5135 9.48646 16.5513 12.0002 16.5513Z" fill="#FF4B55"/>
</g>
<defs>
<clipPath id="clip0_2537_9317">
<rect width="24" height="24" fill="white"/>
</clipPath>
</defs>
</svg>
