<svg width="24" height="24" viewBox="0 0 24 24" fill="none" xmlns="http://www.w3.org/2000/svg">
<g clip-path="url(#clip0_2537_9293)">
<path d="M23.5869 19.8623H0.414537C0.186021 19.8623 0.000724792 19.677 0.000724792 19.4485V4.552C0.000724792 4.32348 0.186021 4.13818 0.414537 4.13818H23.5869C23.8154 4.13818 24.0007 4.32348 24.0007 4.552V19.4485C24.0007 19.6771 23.8154 19.8623 23.5869 19.8623Z" fill="#F5F5F5"/>
<path d="M14.2978 8.55643C12.3964 7.28889 9.8283 7.80709 8.56155 9.70515C7.92616 10.6525 8.18444 11.9399 9.13506 12.5737C10.085 13.2075 11.3682 12.9501 12.002 11.9993C12.6358 11.0487 13.9198 10.7945 14.8697 11.4249C15.8212 12.0587 16.0771 13.3461 15.4424 14.2935C16.71 12.3922 16.1976 9.82403 14.2978 8.55643Z" fill="#FF4B55"/>
<path d="M8.56161 9.70508C7.92622 10.6525 8.1845 11.9398 9.13513 12.5736C10.085 13.2074 11.3682 12.95 12.002 11.9993C12.6358 11.0486 13.9199 10.7944 14.8698 11.4249C15.8212 12.0587 16.0771 13.346 15.4424 14.2934C14.1765 16.198 11.6092 16.7097 9.70784 15.4421C7.80819 14.1746 7.29407 11.6065 8.56161 9.70508Z" fill="#41479B"/>
<path d="M16.4037 6.99319L17.1554 8.12297C17.2185 8.2179 17.193 8.34605 17.0982 8.40947L16.9077 8.53711C16.8125 8.60077 16.6838 8.57518 16.6204 8.47993L15.8678 7.35043C15.8044 7.25541 15.8301 7.12702 15.9251 7.0636L16.1166 6.93573C16.2118 6.87221 16.3404 6.89794 16.4037 6.99319Z" fill="#464655"/>
<path d="M17.5637 8.73508L18.3178 9.86415C18.3814 9.95949 18.3554 10.0885 18.2598 10.1517L18.0683 10.2782C17.9734 10.341 17.8455 10.3152 17.7823 10.2205L17.0286 9.09264C16.9651 8.99767 16.9906 8.86918 17.0857 8.80567L17.2766 8.67798C17.3716 8.61447 17.5002 8.64001 17.5637 8.73508Z" fill="#464655"/>
<path d="M17.2086 6.45643L19.1225 9.3286C19.1858 9.42366 19.1601 9.5521 19.065 9.61547L18.8728 9.74363C18.7777 9.80705 18.6492 9.78132 18.5858 9.68626L16.6713 6.81428C16.6079 6.71917 16.6337 6.59064 16.7289 6.52731L16.9217 6.39892C17.0169 6.33568 17.1452 6.36137 17.2086 6.45643Z" fill="#464655"/>
<path d="M18.0113 5.91998L18.7646 7.05196C18.8281 7.1473 18.802 7.27602 18.7064 7.33916L18.5149 7.46572C18.4198 7.52854 18.2919 7.50271 18.2287 7.40788L17.4749 6.2774C17.4115 6.18233 17.4372 6.05385 17.5323 5.99048L17.7244 5.86241C17.8194 5.79899 17.948 5.82473 18.0113 5.91998Z" fill="#464655"/>
<path d="M19.1718 7.66551L19.9239 8.79515C19.9872 8.89012 19.9616 9.01837 19.8667 9.08179L19.6757 9.20948C19.5806 9.27309 19.4519 9.2474 19.3885 9.15215L18.6364 8.02251C18.5732 7.92754 18.5988 7.7993 18.6936 7.73587L18.8846 7.60819C18.9797 7.54458 19.1084 7.57022 19.1718 7.66551Z" fill="#464655"/>
<path d="M6.22264 13.7806L8.13626 16.6497C8.19963 16.7447 8.17404 16.8731 8.07898 16.9365L7.88735 17.0645C7.79229 17.128 7.66381 17.1023 7.60034 17.0072L5.68672 14.1382C5.62334 14.0431 5.64893 13.9147 5.744 13.8513L5.93562 13.7233C6.03068 13.6598 6.15921 13.6855 6.22264 13.7806Z" fill="#464655"/>
<path d="M5.41944 14.3172L6.17075 15.4442C6.23408 15.5391 6.20854 15.6673 6.11371 15.7308L5.92311 15.8584C5.8281 15.9221 5.69947 15.8965 5.63596 15.8014L4.88376 14.6748C4.82029 14.5797 4.84588 14.4513 4.94094 14.3878L5.13248 14.2599C5.22749 14.1965 5.35602 14.2221 5.41944 14.3172Z" fill="#464655"/>
<path d="M6.58037 16.0595L7.33253 17.1893C7.39581 17.2843 7.37017 17.4126 7.27524 17.476L7.08409 17.6037C6.98898 17.6673 6.8604 17.6417 6.79693 17.5465L6.04431 16.417C5.98098 16.322 6.00667 16.1936 6.10159 16.1301L6.29322 16.0022C6.38837 15.9386 6.51695 15.9643 6.58037 16.0595Z" fill="#464655"/>
<path d="M4.61596 14.8534L6.52836 17.7226C6.59169 17.8176 6.56605 17.9459 6.47122 18.0094L6.28011 18.1371C6.18505 18.2007 6.05647 18.1751 5.993 18.08L4.07948 15.2111C4.01605 15.1161 4.04179 14.9876 4.13685 14.9242L4.32913 14.796C4.4241 14.7326 4.55258 14.7583 4.61596 14.8534Z" fill="#464655"/>
<path d="M5.68715 9.8645L7.60049 6.99309C7.66391 6.89793 7.79245 6.87224 7.88755 6.93571L8.07913 7.06363C8.17415 7.12705 8.19974 7.25549 8.13641 7.35051L6.22232 10.2203C6.15904 10.3152 6.03103 10.3409 5.93601 10.278L5.74518 10.1517C5.64965 10.0885 5.62368 9.95975 5.68715 9.8645Z" fill="#464655"/>
<path d="M4.88339 9.32842L6.79706 6.45644C6.86048 6.36128 6.98911 6.3356 7.08421 6.39916L7.27532 6.52694C7.3702 6.59036 7.39579 6.71861 7.33251 6.81363L5.41936 9.68575C5.35594 9.7809 5.22741 9.80664 5.1323 9.74312L4.94067 9.6152C4.8457 9.55183 4.82006 9.42344 4.88339 9.32842Z" fill="#464655"/>
<path d="M4.0791 8.79473L5.99296 5.9199C6.05638 5.82469 6.18505 5.79896 6.28016 5.86252L6.47127 5.9903C6.56614 6.05372 6.59174 6.18188 6.52855 6.2769L4.61586 9.15215C4.55254 9.24736 4.42396 9.27314 4.32885 9.20972L4.13657 9.08156C4.04155 9.01819 4.01587 8.8898 4.0791 8.79473Z" fill="#464655"/>
<path d="M15.8682 16.6493L16.6204 15.5227C16.6839 15.4276 16.8125 15.402 16.9075 15.4656L17.0981 15.5933C17.1929 15.6568 17.2184 15.785 17.1552 15.88L16.4038 17.0068C16.3404 17.102 16.2119 17.1276 16.1168 17.0642L15.9253 16.9363C15.8303 16.8728 15.8047 16.7444 15.8682 16.6493Z" fill="#464655"/>
<path d="M17.0284 14.913L17.7818 13.7808C17.8452 13.6856 17.9737 13.6598 18.0688 13.7232L18.2608 13.8512C18.3559 13.9146 18.3816 14.0432 18.3181 14.1383L17.5631 15.2687C17.4998 15.3635 17.3718 15.3892 17.2768 15.3262L17.0864 15.2C16.991 15.1368 16.965 15.0082 17.0284 14.913Z" fill="#464655"/>
<path d="M16.6713 17.1891L17.424 16.0595C17.4874 15.9644 17.6158 15.9386 17.7109 16.0021L17.9033 16.1304C17.9983 16.1937 18.024 16.3221 17.9607 16.4172L17.2085 17.5469C17.1452 17.642 17.0168 17.6678 16.9217 17.6044L16.7288 17.476C16.6337 17.4127 16.6079 17.2842 16.6713 17.1891Z" fill="#464655"/>
<path d="M17.8329 15.4435L18.586 14.3166C18.6495 14.2216 18.7778 14.196 18.8728 14.2594L19.0651 14.3875C19.1602 14.451 19.1859 14.5795 19.1224 14.6746L18.3693 15.8016C18.3059 15.8965 18.1775 15.9221 18.0825 15.8588L17.8902 15.7306C17.795 15.6673 17.7694 15.5386 17.8329 15.4435Z" fill="#464655"/>
<path d="M17.475 17.7225L18.2285 16.5949C18.2918 16.5002 18.4197 16.4745 18.5146 16.5372L18.7062 16.6638C18.8017 16.727 18.8278 16.8558 18.7642 16.9512L18.0113 18.0803C17.9479 18.1754 17.8194 18.201 17.7244 18.1377L17.5322 18.0096C17.4371 17.9462 17.4115 17.8176 17.475 17.7225Z" fill="#464655"/>
<path d="M18.6367 15.9829L19.3883 14.854C19.4517 14.7588 19.5804 14.733 19.6755 14.7966L19.8664 14.9242C19.9613 14.9877 19.9869 15.1161 19.9235 15.2111L19.1712 16.3385C19.108 16.4334 18.9798 16.4592 18.8848 16.3962L18.6945 16.2701C18.5992 16.2069 18.5733 16.0782 18.6367 15.9829Z" fill="#464655"/>
</g>
<defs>
<clipPath id="clip0_2537_9293">
<rect width="24" height="24" fill="white"/>
</clipPath>
</defs>
</svg>
