<svg width="24" height="24" viewBox="0 0 24 24" fill="none" xmlns="http://www.w3.org/2000/svg">
<g clip-path="url(#clip0_2537_9331)">
<path d="M23.5862 19.8618H0.413831C0.185316 19.8618 1.90735e-05 19.6765 1.90735e-05 19.448V4.55151C1.90735e-05 4.32299 0.185316 4.1377 0.413831 4.1377H23.5862C23.8147 4.1377 24 4.32299 24 4.55151V19.448C24 19.6766 23.8147 19.8618 23.5862 19.8618Z" fill="#F5F5F5"/>
<path d="M0.537955 5.19746L9.11081 11.4622H3.70989H2.50511L3.30929 12.3593L9.55383 19.3243H0.537955V5.19746ZM0.144441 4.24365C0.0575815 4.31954 1.90735e-05 4.42754 1.90735e-05 4.55185V19.4484C1.90735e-05 19.6769 0.185316 19.8622 0.413831 19.8622H10.7587L3.70989 12.0001H10.7587L0.144441 4.24365Z" fill="#41479B"/>
<path d="M0.538002 5.19727L9.11086 11.462H3.70993H2.50515L3.30943 12.359L9.55392 19.3241H0.538002V5.19727Z" fill="#FF4B55"/>
<path d="M3.15657 13.8937L3.48779 14.5773L4.11642 14.1509C4.14413 14.132 4.18139 14.1536 4.17896 14.187L4.12407 14.9446L4.88166 14.8897C4.91508 14.8872 4.9366 14.9245 4.91775 14.9522L4.49138 15.5809L5.17495 15.9121C5.20509 15.9267 5.20509 15.9696 5.17495 15.9843L4.49138 16.3155L4.91775 16.9441C4.9366 16.9718 4.91508 17.0091 4.88166 17.0066L4.12407 16.9518L4.17896 17.7093C4.18139 17.7428 4.14413 17.7643 4.11642 17.7454L3.48779 17.3191L3.15657 18.0026C3.14194 18.0328 3.09901 18.0328 3.08438 18.0026L2.75316 17.3191L2.12452 17.7454C2.09682 17.7643 2.05955 17.7428 2.06199 17.7093L2.11688 16.9518L1.35929 17.0066C1.32587 17.0091 1.30435 16.9718 1.3232 16.9441L1.74957 16.3155L1.06585 15.9844C1.03571 15.9698 1.03571 15.9268 1.06585 15.9122L1.74943 15.581L1.32306 14.9524C1.30421 14.9246 1.32573 14.8874 1.35915 14.8898L2.11674 14.9447L2.06185 14.1871C2.05941 14.1537 2.09668 14.1322 2.12438 14.151L2.75302 14.5774L3.08424 13.8938C3.09896 13.8635 3.14194 13.8635 3.15657 13.8937Z" fill="#F5F5F5"/>
<path d="M4.01695 9.94017L3.72938 9.74372L3.98255 9.47836L3.62175 9.4125L3.74513 9.06717L3.38874 9.15375L3.36094 8.78812L3.0706 9.01214L2.89655 8.68945L2.72246 9.01223L2.43211 8.78822L2.40432 9.15384L2.04793 9.06726L2.1713 9.41259L1.8105 9.47845L2.06368 9.74381L1.7761 9.94026C1.41324 9.77086 1.09421 9.52331 0.843147 9.21712C1.0118 10.1997 1.86572 10.9482 2.89646 10.9482C3.92719 10.9482 4.78106 10.1997 4.94976 9.21712C4.69884 9.52326 4.37977 9.77076 4.01695 9.94017Z" fill="#F5F5F5"/>
</g>
<defs>
<clipPath id="clip0_2537_9331">
<rect width="24" height="24" fill="white"/>
</clipPath>
</defs>
</svg>
