<svg width="24" height="24" viewBox="0 0 24 24" fill="none" xmlns="http://www.w3.org/2000/svg">
<g clip-path="url(#clip0_2537_9320)">
<path d="M23.5864 19.8618H0.414075C0.18556 19.8618 0.000263214 19.6765 0.000263214 19.448V4.55151C0.000263214 4.32299 0.18556 4.1377 0.414075 4.1377H23.5865C23.815 4.1377 24.0003 4.32299 24.0003 4.55151V19.448C24.0002 19.6766 23.8149 19.8618 23.5864 19.8618Z" fill="#FF4B55"/>
<path d="M12.1933 7.31102L13.2999 10.6293L16.7978 10.6564C16.9934 10.6579 17.0745 10.9075 16.9171 11.0237L14.1033 13.1016L15.1584 16.4366C15.2174 16.6231 15.0051 16.7774 14.8459 16.6636L12.0002 14.6296L9.15442 16.6636C8.99533 16.7774 8.78299 16.6231 8.84196 16.4366L9.89706 13.1016L7.08321 11.0237C6.92585 10.9075 7.00699 10.6579 7.20255 10.6564L10.7004 10.6293L11.8071 7.31102C11.869 7.12549 12.1314 7.12549 12.1933 7.31102Z" fill="#FFE15A"/>
</g>
<defs>
<clipPath id="clip0_2537_9320">
<rect width="24" height="24" fill="white"/>
</clipPath>
</defs>
</svg>
