<svg width="125" height="135" viewBox="0 0 125 135" fill="none" xmlns="http://www.w3.org/2000/svg">
<path id="account_circle" d="M22.1875 105.403C28.75 100.937 35.2344 97.56 41.6406 95.2713C48.0469 92.9826 55 91.8383 62.5 91.8383C70 91.8383 76.9792 92.9826 83.4375 95.2713C89.8958 97.56 96.4062 100.937 102.969 105.403C107.552 99.3742 110.807 93.2897 112.734 87.1493C114.661 81.009 115.625 74.5337 115.625 67.7235C115.625 51.5353 110.547 37.9986 100.391 27.1135C90.2344 16.2283 77.6042 10.7858 62.5 10.7858C47.3958 10.7858 34.7656 16.2283 24.6094 27.1135C14.4531 37.9986 9.375 51.5353 9.375 67.7235C9.375 74.5337 10.3646 81.009 12.3438 87.1493C14.3229 93.2897 17.6042 99.3742 22.1875 105.403ZM62.4709 72.7474C56.4486 72.7474 51.3802 70.5321 47.2656 66.1014C43.151 61.6708 41.0938 56.2282 41.0938 49.7737C41.0938 43.3192 43.1607 37.887 47.2947 33.4771C51.4286 29.0672 56.5068 26.8623 62.5291 26.8623C68.5514 26.8623 73.6198 29.0776 77.7344 33.5083C81.849 37.9389 83.9062 43.3815 83.9062 49.836C83.9062 56.2905 81.8393 61.7227 77.7053 66.1326C73.5714 70.5425 68.4932 72.7474 62.4709 72.7474ZM62.4367 134.709C53.7757 134.709 45.6364 132.951 38.0188 129.434C30.4011 125.917 23.7748 121.117 18.1398 115.032C12.5049 108.948 8.07292 101.839 4.84375 93.707C1.61458 85.575 0 76.8859 0 67.6398C0 58.3936 1.64062 49.7045 4.92188 41.5725C8.20312 33.4403 12.6823 26.3599 18.3594 20.3312C24.0365 14.3025 30.6688 9.52977 38.2564 6.01303C45.8439 2.49629 53.9511 0.737915 62.5781 0.737915C71.2051 0.737915 79.3123 2.49629 86.8998 6.01303C94.4874 9.52977 101.094 14.3025 106.719 20.3312C112.344 26.3599 116.797 33.4492 120.078 41.5991C123.359 49.749 125 58.4423 125 67.6789C125 76.9156 123.359 85.5958 120.078 93.7196C116.797 101.843 112.344 108.948 106.719 115.032C101.094 121.117 94.4724 125.917 86.8548 129.434C79.2372 132.951 71.0979 134.709 62.4367 134.709Z" fill="#44CD81"/>
</svg>
