<svg width="127" height="31" viewBox="0 0 127 31" fill="none" xmlns="http://www.w3.org/2000/svg">
<path d="M0.528409 30V0.90909H12.0057C14.2121 0.90909 16.0919 1.33049 17.6449 2.1733C19.1979 3.00663 20.3816 4.16667 21.196 5.65341C22.0199 7.13068 22.4318 8.83523 22.4318 10.767C22.4318 12.6989 22.0152 14.4034 21.1818 15.8807C20.3485 17.358 19.1411 18.5085 17.5597 19.3324C15.9877 20.1562 14.0843 20.5682 11.8494 20.5682H4.53409V15.6392H10.8551C12.0388 15.6392 13.0142 15.4356 13.7812 15.0284C14.5578 14.6117 15.1354 14.0388 15.5142 13.3097C15.9025 12.571 16.0966 11.7235 16.0966 10.767C16.0966 9.80114 15.9025 8.95833 15.5142 8.23864C15.1354 7.50947 14.5578 6.94602 13.7812 6.5483C13.0047 6.1411 12.0199 5.9375 10.8267 5.9375H6.67898V30H0.528409ZM32.3643 0.90909V30H26.3132V0.90909H32.3643ZM47.1548 30.4261C44.9105 30.4261 42.9787 29.9716 41.3594 29.0625C39.7495 28.1439 38.509 26.8466 37.6378 25.1705C36.7666 23.4848 36.331 21.4915 36.331 19.1903C36.331 16.946 36.7666 14.9763 37.6378 13.2812C38.509 11.5862 39.7353 10.2652 41.3168 9.31818C42.9077 8.37121 44.7732 7.89773 46.9134 7.89773C48.3527 7.89773 49.6927 8.12973 50.9332 8.59375C52.1832 9.0483 53.2723 9.73485 54.2003 10.6534C55.1378 11.572 55.867 12.7273 56.3878 14.1193C56.9086 15.5019 57.169 17.1212 57.169 18.9773V20.6392H38.7457V16.8892H51.473C51.473 16.018 51.2836 15.2462 50.9048 14.5739C50.526 13.9015 50.0005 13.3759 49.3281 12.9972C48.6652 12.6089 47.8935 12.4148 47.0128 12.4148C46.0942 12.4148 45.2798 12.6278 44.5696 13.054C43.8688 13.4706 43.3196 14.0341 42.9219 14.7443C42.5241 15.4451 42.3205 16.2263 42.3111 17.0881V20.6534C42.3111 21.733 42.5099 22.6657 42.9077 23.4517C43.3149 24.2377 43.8878 24.8438 44.6264 25.2699C45.3651 25.696 46.241 25.9091 47.2543 25.9091C47.9266 25.9091 48.5421 25.8144 49.1009 25.625C49.6596 25.4356 50.1378 25.1515 50.5355 24.7727C50.9332 24.3939 51.2363 23.9299 51.4446 23.3807L57.0412 23.75C56.7571 25.0947 56.1747 26.2689 55.294 27.2727C54.4228 28.267 53.2959 29.0436 51.9134 29.6023C50.5402 30.1515 48.9541 30.4261 47.1548 30.4261ZM67.3395 30.4119C65.9474 30.4119 64.7069 30.1705 63.6179 29.6875C62.5289 29.1951 61.6671 28.4706 61.0327 27.5142C60.4077 26.5483 60.0952 25.3456 60.0952 23.9062C60.0952 22.6941 60.3177 21.6761 60.7628 20.8523C61.2079 20.0284 61.8139 19.3655 62.581 18.8636C63.348 18.3617 64.2192 17.983 65.1946 17.7273C66.1795 17.4716 67.2116 17.2917 68.2912 17.1875C69.5601 17.0549 70.5829 16.9318 71.3594 16.8182C72.1359 16.6951 72.6993 16.5152 73.0497 16.2784C73.4001 16.0417 73.5753 15.6913 73.5753 15.2273V15.142C73.5753 14.2424 73.2912 13.5464 72.723 13.054C72.1643 12.5616 71.3688 12.3153 70.3366 12.3153C69.2476 12.3153 68.3812 12.5568 67.7372 13.0398C67.0933 13.5133 66.6671 14.1098 66.4588 14.8295L60.8622 14.375C61.1463 13.0492 61.705 11.9034 62.5384 10.9375C63.3717 9.96212 64.4465 9.21401 65.7628 8.69318C67.0885 8.16288 68.6226 7.89773 70.3651 7.89773C71.5772 7.89773 72.7372 8.03977 73.8452 8.32386C74.9626 8.60795 75.9522 9.0483 76.8139 9.64489C77.6851 10.2415 78.3717 11.0085 78.8736 11.946C79.3755 12.8741 79.6264 13.9867 79.6264 15.2841V30H73.8878V26.9744H73.7173C73.367 27.6562 72.8982 28.2576 72.3111 28.7784C71.724 29.2898 71.0185 29.6922 70.1946 29.9858C69.3707 30.2699 68.419 30.4119 67.3395 30.4119ZM69.0724 26.2358C69.9626 26.2358 70.7486 26.0606 71.4304 25.7102C72.1122 25.3504 72.6473 24.8674 73.0355 24.2614C73.4238 23.6553 73.6179 22.9687 73.6179 22.2017V19.8864C73.4285 20.0095 73.1681 20.1231 72.8366 20.2273C72.5147 20.322 72.1501 20.4119 71.7429 20.4972C71.3357 20.5729 70.9285 20.6439 70.5213 20.7102C70.1141 20.767 69.7448 20.8191 69.4134 20.8665C68.7031 20.9706 68.0829 21.1364 67.5526 21.3636C67.0223 21.5909 66.6103 21.8987 66.3168 22.2869C66.0232 22.6657 65.8764 23.1392 65.8764 23.7074C65.8764 24.5312 66.1747 25.161 66.7713 25.5966C67.3774 26.0227 68.1444 26.2358 69.0724 26.2358ZM102.474 14.4034L96.9347 14.7443C96.84 14.2708 96.6364 13.8447 96.3239 13.4659C96.0114 13.0777 95.5994 12.7699 95.0881 12.5426C94.5862 12.3059 93.9848 12.1875 93.2841 12.1875C92.3466 12.1875 91.5559 12.3864 90.9119 12.7841C90.268 13.1723 89.946 13.6932 89.946 14.3466C89.946 14.8674 90.1544 15.3078 90.571 15.6676C90.9877 16.0275 91.7027 16.3163 92.7159 16.5341L96.6648 17.3295C98.786 17.7652 100.367 18.4659 101.409 19.4318C102.451 20.3977 102.972 21.6667 102.972 23.2386C102.972 24.6686 102.55 25.9233 101.707 27.0028C100.874 28.0824 99.7282 28.9252 98.2699 29.5312C96.821 30.1278 95.1496 30.4261 93.2557 30.4261C90.3674 30.4261 88.0663 29.8248 86.3523 28.6222C84.6477 27.41 83.6487 25.7623 83.3551 23.679L89.3068 23.3665C89.4867 24.2472 89.9223 24.9195 90.6136 25.3835C91.3049 25.8381 92.1903 26.0653 93.2699 26.0653C94.3305 26.0653 95.1828 25.8617 95.8267 25.4545C96.4801 25.0379 96.8116 24.5028 96.821 23.8494C96.8116 23.3002 96.5795 22.8504 96.125 22.5C95.6705 22.1402 94.9697 21.8655 94.0227 21.6761L90.2443 20.9233C88.1136 20.4972 86.5275 19.7585 85.4858 18.7074C84.4536 17.6562 83.9375 16.3163 83.9375 14.6875C83.9375 13.286 84.3163 12.0786 85.0739 11.0653C85.8409 10.0521 86.9157 9.27083 88.2983 8.72159C89.6903 8.17235 91.3191 7.89773 93.1847 7.89773C95.9403 7.89773 98.1089 8.48011 99.6903 9.64489C101.281 10.8097 102.209 12.3958 102.474 14.4034ZM116.725 30.4261C114.481 30.4261 112.549 29.9716 110.93 29.0625C109.32 28.1439 108.079 26.8466 107.208 25.1705C106.337 23.4848 105.901 21.4915 105.901 19.1903C105.901 16.946 106.337 14.9763 107.208 13.2812C108.079 11.5862 109.306 10.2652 110.887 9.31818C112.478 8.37121 114.344 7.89773 116.484 7.89773C117.923 7.89773 119.263 8.12973 120.504 8.59375C121.754 9.0483 122.843 9.73485 123.771 10.6534C124.708 11.572 125.437 12.7273 125.958 14.1193C126.479 15.5019 126.739 17.1212 126.739 18.9773V20.6392H108.316V16.8892H121.043C121.043 16.018 120.854 15.2462 120.475 14.5739C120.096 13.9015 119.571 13.3759 118.898 12.9972C118.236 12.6089 117.464 12.4148 116.583 12.4148C115.665 12.4148 114.85 12.6278 114.14 13.054C113.439 13.4706 112.89 14.0341 112.492 14.7443C112.094 15.4451 111.891 16.2263 111.881 17.0881V20.6534C111.881 21.733 112.08 22.6657 112.478 23.4517C112.885 24.2377 113.458 24.8438 114.197 25.2699C114.935 25.696 115.811 25.9091 116.825 25.9091C117.497 25.9091 118.112 25.8144 118.671 25.625C119.23 25.4356 119.708 25.1515 120.106 24.7727C120.504 24.3939 120.807 23.9299 121.015 23.3807L126.612 23.75C126.327 25.0947 125.745 26.2689 124.864 27.2727C123.993 28.267 122.866 29.0436 121.484 29.6023C120.111 30.1515 118.524 30.4261 116.725 30.4261Z" fill="white"/>
</svg>
